<?xml version="1.0" standalone="no"?><!DOCTYPE svg PUBLIC "-//W3C//DTD SVG 1.1//EN" "http://www.w3.org/Graphics/SVG/1.1/DTD/svg11.dtd"><svg t="1648116585185" class="icon" viewBox="0 0 1024 1024" version="1.1" xmlns="http://www.w3.org/2000/svg" p-id="1531" xmlns:xlink="http://www.w3.org/1999/xlink" width="200" height="200"><defs><style type="text/css">@font-face { font-family: feedback-iconfont; src: url("//at.alicdn.com/t/font_1031158_u69w8yhxdu.woff2?t=1630033759944") format("woff2"), url("//at.alicdn.com/t/font_1031158_u69w8yhxdu.woff?t=1630033759944") format("woff"), url("//at.alicdn.com/t/font_1031158_u69w8yhxdu.ttf?t=1630033759944") format("truetype"); }
</style></defs><path d="M843.887 795.499H721.549c-26.891-104.975-116.46-186.516-227.404-204.47 26.375-19.235 48.58-43.592 65.038-71.555a223.756 223.756 0 0 1 21.676-1.06h153.435c120.558 0 219.195 95.915 219.195 213.138 0 35.17-73.433 63.947-109.602 63.947zM657.575 465.012c-25.475 0-49.679-5.289-71.527-14.793a229.522 229.522 0 0 0 4.892-47.229c0-74.293-35.478-140.508-90.843-183.551 28.547-56.531 88.333-95.448 157.478-95.448 96.851 0 175.356 76.339 175.356 170.51 0 94.171-78.505 170.511-175.356 170.511zM367.4 569.5c-96.843 0-175.357-76.346-175.357-170.508 0-94.177 78.514-170.511 175.357-170.511 96.842 0 175.352 76.334 175.352 170.511 0 94.162-78.51 170.508-175.352 170.508z m76.715 53.405c120.554 0 219.19 95.912 219.19 213.138 0 35.17-73.428 63.946-109.593 63.946H181.083c-36.165 0-109.598-28.776-109.598-63.946 0-117.226 98.637-213.138 219.195-213.138h153.435z" fill="" p-id="1532"></path></svg>