<?xml version="1.0" standalone="no"?><!DOCTYPE svg PUBLIC "-//W3C//DTD SVG 1.1//EN" "http://www.w3.org/Graphics/SVG/1.1/DTD/svg11.dtd"><svg t="1648116594103" class="icon" viewBox="0 0 1024 1024" version="1.1" xmlns="http://www.w3.org/2000/svg" p-id="1943" xmlns:xlink="http://www.w3.org/1999/xlink" width="200" height="200"><defs><style type="text/css">@font-face { font-family: feedback-iconfont; src: url("//at.alicdn.com/t/font_1031158_u69w8yhxdu.woff2?t=1630033759944") format("woff2"), url("//at.alicdn.com/t/font_1031158_u69w8yhxdu.woff?t=1630033759944") format("woff"), url("//at.alicdn.com/t/font_1031158_u69w8yhxdu.ttf?t=1630033759944") format("truetype"); }
</style></defs><path d="M754.91753473 835.8900463c14.9065333 0 26.99083719 12.08430389 26.99083719 26.99083719 0 14.9065333-12.08430389 26.99083719-26.99083719 26.99083718H269.08246527c-14.9065333 0-26.99083719-12.08430389-26.99083719-26.99083718 0-14.9065333 12.08430389-26.99083719 26.99083719-26.99083719h485.83506946z m53.98167437-701.76176697c44.72044337 0 80.97251158 36.2520682 80.97251157 80.97251158v485.83506944c0 44.72044337-36.2520682 80.97251158-80.97251157 80.97251157H215.1007909c-44.72044337 0-80.97251158-36.2520682-80.97251157-80.97251157V215.1007909c0-44.72044337 36.2520682-80.97251158 80.97251157-80.97251157h593.7984182z m-45.91394445 253.6742268c-8.75093549-11.63136391-25.1706426-14.22248428-37.07866259-5.85110743l-0.35931551 0.25641296-126.51617549 92.01092052a13.49541859 13.49541859 0 0 1-14.74037097 0.74140456l-0.26990837-0.16194502-136.4015696-83.93897328c-18.98383665-11.68197173-43.17100063-10.48425332-60.89807641 2.95212282l-0.53475596 0.41161027-106.68381439 82.97658123-0.35003741 0.27665608c-11.34289933 9.12121604-13.40432451 25.61599142-4.65338903 37.24819879l0.2690649 0.35088087 0.27665608 0.35003744c9.12121604 11.34289933 25.61599142 13.40432451 37.2481988 4.65338902l0.35088088-0.26906491 99.2950727-77.23006331a13.49541859 13.49541859 0 0 1 15.09125185-1.00119136l0.26737798 0.16025809 136.13081777 83.77281094c18.44739375 11.35217743 41.87291004 10.5685997 59.50889176-1.93490564l0.53306904-0.3829325L757.29610225 425.86549081l0.35931552-0.26569105c11.63136391-8.75093549 14.22248428-25.1706426 5.85110742-37.07866259l-0.25641295-0.35931552-0.26569105-0.35931552z" fill="#707070" p-id="1944"></path></svg>