<?xml version="1.0" standalone="no"?><!DOCTYPE svg PUBLIC "-//W3C//DTD SVG 1.1//EN" "http://www.w3.org/Graphics/SVG/1.1/DTD/svg11.dtd"><svg t="1648116579348" class="icon" viewBox="0 0 1024 1024" version="1.1" xmlns="http://www.w3.org/2000/svg" p-id="1259" xmlns:xlink="http://www.w3.org/1999/xlink" width="200" height="200"><defs><style type="text/css">@font-face { font-family: feedback-iconfont; src: url("//at.alicdn.com/t/font_1031158_u69w8yhxdu.woff2?t=1630033759944") format("woff2"), url("//at.alicdn.com/t/font_1031158_u69w8yhxdu.woff?t=1630033759944") format("woff"), url("//at.alicdn.com/t/font_1031158_u69w8yhxdu.ttf?t=1630033759944") format("truetype"); }
</style></defs><path d="M465.19078565 405.21756092L502.97028459 492.97186409H857.10119223V159.56432627C857.10119223 115.36715605 819.90983568 79.5423656 774.06932643 79.5423656h-477.43322835c-45.84050925 0-83.0318658 35.82479043-83.03186579 80.02196067v211.7139595h198.93051182a57.08440774 57.08440774 0 0 1 52.65604154 33.93927515zM362.36965852 230.03762239a25.94745806 25.94745806 0 0 1 25.94745805-25.94745807h294.07119138a25.94745806 25.94745806 0 0 1 0 51.89491612h-294.07119138a25.94745806 25.94745806 0 0 1-25.94745805-25.94745805z" fill="#707070" p-id="1260"></path><path d="M883.91356556 532.75796645H484.80706395l-37.77949895-91.0582795A57.08440774 57.08440774 0 0 0 394.37152345 406.48033721H136.62677335a57.08440774 57.08440774 0 0 0-57.08440775 57.08440773v119.3583071c0 1.72983054 0.08649151 3.45966107 0.2421763 5.18949161-0.15568476 1.72983054-0.24217628 3.45966107-0.2421763 5.18949161v290.6115303a60.54406881 60.54406881 0 0 0 60.54406884 60.54406884h743.82713112a60.54406881 60.54406881 0 0 0 60.54406884-60.54406884V593.30203526a60.54406881 60.54406881 0 0 0-60.54406884-60.54406881zM219.65863915 752.44644473a70.92305203 70.92305203 0 1 1 70.92305206-70.92305206 70.92305203 70.92305203 0 0 1-70.92305206 70.92305206z" fill="#707070" p-id="1261"></path></svg>