<?xml version="1.0" standalone="no"?><!DOCTYPE svg PUBLIC "-//W3C//DTD SVG 1.1//EN" "http://www.w3.org/Graphics/SVG/1.1/DTD/svg11.dtd"><svg t="1648116588037" class="icon" viewBox="0 0 1024 1024" version="1.1" xmlns="http://www.w3.org/2000/svg" p-id="1670" xmlns:xlink="http://www.w3.org/1999/xlink" width="200" height="200"><defs><style type="text/css">@font-face { font-family: feedback-iconfont; src: url("//at.alicdn.com/t/font_1031158_u69w8yhxdu.woff2?t=1630033759944") format("woff2"), url("//at.alicdn.com/t/font_1031158_u69w8yhxdu.woff?t=1630033759944") format("woff"), url("//at.alicdn.com/t/font_1031158_u69w8yhxdu.ttf?t=1630033759944") format("truetype"); }
</style></defs><path d="M876.90214585 56.25210756c24.97498413 0 45.27095703 20.23520642 45.27095704 45.2101916l0.0607665 447.17983138a273.44873524 273.44873524 0 0 0-340.53482462 419.22729383L147.09785415 967.74789244a45.27095703 45.27095703 0 0 1-45.27095704-45.2101916V101.46229916a45.57478957 45.57478957 0 0 1 45.27095704-45.2101916h729.8042917zM542.38319233 147.40168669H284.1260543v410.17310288l129.12856955-91.14957914L542.38319233 557.57478957V147.40168669z m425.97236409 763.71193378a40.95654379 40.95654379 0 0 1-28.8032675 69.75981126 40.47041281 40.47041281 0 0 1-28.80326641-11.97097783l-82.03462057-82.03462058-7.89963061-8.02116362-10.6341169 3.8282823a119.10211555 119.10211555 0 0 1-151.73366533-152.82745923l65.20233199 65.26309745 12.57864182 12.63940832 12.57864184-12.57864183 46.06092051-46.18245246 12.57864181-12.57864183-77.78097381-77.90250684a119.16288206 119.16288206 0 0 1 152.58439426 151.91596381l-3.76751579 10.63411795 7.96039605 8.02116254 81.97385409 82.03462059z m12.63940725 70.42824069a58.2141979 58.2141979 0 0 1-41.44267475 17.19688758c-15.61696063 0-30.38319233-6.13740517-41.44267473-17.19688758l-81.91308758-82.03462057a136.96743365 136.96743365 0 0 1-171.36120777-183.33218458l2.43065588-5.89434023h0.12153195v-0.06076543a8.14269556 8.14269556 0 0 1 13.3686053-2.97755339 0.36459794 0.36459794 0 0 0 0.36459797 0.18229953h0.12153301l74.98571996 75.1072519 46.06092052-46.12168597-76.56564586-76.68717888v-0.06076651a6.92736761 6.92736761 0 0 1 2.12682337-11.30254737l8.14269556-3.58521733a136.96743365 136.96743365 0 0 1 183.02835311 171.66503923l81.97385406 82.03462058a58.82186081 58.82186081 0 0 1 0 83.06764902z" p-id="1671"></path></svg>