<?xml version="1.0" standalone="no"?><!DOCTYPE svg PUBLIC "-//W3C//DTD SVG 1.1//EN" "http://www.w3.org/Graphics/SVG/1.1/DTD/svg11.dtd"><svg t="1648117396884" class="icon" viewBox="0 0 1024 1024" version="1.1" xmlns="http://www.w3.org/2000/svg" p-id="1156" xmlns:xlink="http://www.w3.org/1999/xlink" width="200" height="200"><defs><style type="text/css">@font-face { font-family: feedback-iconfont; src: url("//at.alicdn.com/t/font_1031158_u69w8yhxdu.woff2?t=1630033759944") format("woff2"), url("//at.alicdn.com/t/font_1031158_u69w8yhxdu.woff?t=1630033759944") format("woff"), url("//at.alicdn.com/t/font_1031158_u69w8yhxdu.ttf?t=1630033759944") format("truetype"); }
</style></defs><path d="M532.85069643 603.96399882h45.15349492v62.27592112h-45.15349492z" fill="#707070" p-id="1157"></path><path d="M949.58845682 265.10566083l-89.47848533-141.53618436c-22.78387358-36.17802957-61.86166887-57.58106231-104.52965031-57.58106232H271.18136046c-42.66798143 0-81.74577674 21.54111683-104.52965031 57.58106232l-89.34040124 141.53618436c-34.24485242 54.12896027-28.1691528 125.24226266 14.77499681 173.01935514l2.07126123 2.20934531c6.76612003 7.45654045 14.22266047 14.08457639 22.09345317 19.88410786v387.87818719c0 41.56330877 37.00653407 75.11774077 82.57428121 75.11774077h629.24916306c45.70583125 0 82.57428122-33.69251609 82.57428123-75.11774077V458.97571239c8.5612131-6.07569962 16.84625804-12.84181965 24.16471439-21.12686458 42.9441496-47.5009243 48.88176514-118.6142267 14.77499681-172.74318698z m-510.22068412 530.24287606h-35.7637773v-136.01282107c-7.18037229 12.70373557-14.7749968 24.71705073-22.7838736 36.45419773-2.48551348-15.46541722-6.35186779-33.00209567-11.5990629-52.47195128 21.817285-33.96868425 40.04438386-77.32708608 55.09554883-130.21328962l37.00653406 10.77055843c-6.62803595 21.40303275-13.9464923 41.83947694-21.81728499 61.44741662v210.02588919z m43.08223368 2.89976572c-8.00887677-7.59462453-17.81284661-16.15583763-29.68807769-25.6836393 20.85069643-20.02219194 39.49204754-41.70139286 56.20022151-65.31377093l32.86401158 21.81728501c-16.57008987 22.50770542-36.45419773 45.56774717-59.3761554 69.18012522z m140.98384804-0.55233633c-15.87966947-22.09345317-34.79718875-44.73924267-56.75255783-67.93736849l29.96424586-21.26494867c20.16027601 20.02219194 40.45863612 41.2871406 60.61891213 63.79484602l-33.83060016 25.40747114z m34.79718875-94.03526004H452.20959235v-37.28270223h41.01097245v-62.27592111h-31.75933893v-37.28270222h31.75933893v-52.47195128h39.63013163v52.47195128h45.15349492v-52.47195128h39.63013162v52.47195128H650.08408231v37.28270222h-32.31167526v62.27592111h40.45863612v37.28270223z m221.90112024-314.96979173c-24.02663031 26.65022788-63.9329301 30.79275037-92.79250329 9.38971759L721.8878051 349.47503513c-34.3829365-25.54555523-83.26470163-21.95536909-113.64319973 8.42312902-44.18690634 44.04882225-113.50511565 47.22475615-161.42029222 7.31845636l-18.91751928-15.74158538c-29.96424587-24.9932189-73.3226477-26.92639605-105.35815479-4.83294288l-82.98853346 57.16681006c-28.58340503 19.6079397-67.66120033 15.18924905-90.99741025-10.90864249l-2.07126124-2.20934531c-20.85069643-23.33620992-23.88854624-57.99531457-7.18037226-84.50745837L228.65146311 162.64727177c9.25163351-14.63691274 25.13130297-23.33620992 42.39181327-23.3362099h484.39896072c17.26051028 0 33.14017975 8.69929718 42.39181327 23.3362099l89.34040125 141.53618437c16.98434213 26.51214381 13.9464923 61.30933253-7.04228821 84.50745837z" p-id="1158"></path></svg>