<?xml version="1.0" standalone="no"?><!DOCTYPE svg PUBLIC "-//W3C//DTD SVG 1.1//EN" "http://www.w3.org/Graphics/SVG/1.1/DTD/svg11.dtd"><svg t="1650438754691" class="icon" viewBox="0 0 1024 1024" version="1.1" xmlns="http://www.w3.org/2000/svg" p-id="4816" xmlns:xlink="http://www.w3.org/1999/xlink" width="200" height="200"><defs><style type="text/css">@font-face { font-family: feedback-iconfont; src: url("//at.alicdn.com/t/font_1031158_u69w8yhxdu.woff2?t=1630033759944") format("woff2"), url("//at.alicdn.com/t/font_1031158_u69w8yhxdu.woff?t=1630033759944") format("woff"), url("//at.alicdn.com/t/font_1031158_u69w8yhxdu.ttf?t=1630033759944") format("truetype"); }
</style></defs><path d="M527.1 578.6h32.7v45.1h-32.7z" p-id="4817"></path><path d="M828.9 333.2l-64.8-102.5c-16.5-26.2-44.8-41.7-75.7-41.7H337.6c-30.9 0-59.2 15.6-75.7 41.7l-64.7 102.5c-24.8 39.2-20.4 90.7 10.7 125.3l1.5 1.6c4.9 5.4 10.3 10.2 16 14.4v280.9c0 30.1 26.8 54.4 59.8 54.4h455.7c33.1 0 59.8-24.4 59.8-54.4V473.6c6.2-4.4 12.2-9.3 17.5-15.3 31.1-34.4 35.4-85.9 10.7-125.1z m-369.5 384h-25.9v-98.5c-5.2 9.2-10.7 17.9-16.5 26.4-1.8-11.2-4.6-23.9-8.4-38 15.8-24.6 29-56 39.9-94.3l26.8 7.8c-4.8 15.5-10.1 30.3-15.8 44.5v152.1z m31.2 2.1c-5.8-5.5-12.9-11.7-21.5-18.6 15.1-14.5 28.6-30.2 40.7-47.3l23.8 15.8c-12 16.3-26.4 33-43 50.1z m102.1-0.4c-11.5-16-25.2-32.4-41.1-49.2l21.7-15.4c14.6 14.5 29.3 29.9 43.9 46.2l-24.5 18.4z m25.2-68.1H468.7v-27h29.7v-45.1h-23v-27h23v-38h28.7v38h32.7v-38h28.7v38H612v27h-23.4v45.1h29.3v27z m160.7-228.1c-17.4 19.3-46.3 22.3-67.2 6.8L664 394.3c-24.9-18.5-60.3-15.9-82.3 6.1-32 31.9-82.2 34.2-116.9 5.3l-13.7-11.4c-21.7-18.1-53.1-19.5-76.3-3.5l-60.1 41.4c-20.7 14.2-49 11-65.9-7.9l-1.5-1.6c-15.1-16.9-17.3-42-5.2-61.2L306.8 259c6.7-10.6 18.2-16.9 30.7-16.9h350.8c12.5 0 24 6.3 30.7 16.9l64.7 102.5c12.3 19.2 10.1 44.4-5.1 61.2z" p-id="4818"></path></svg>