<?xml version="1.0" standalone="no"?><!DOCTYPE svg PUBLIC "-//W3C//DTD SVG 1.1//EN" "http://www.w3.org/Graphics/SVG/1.1/DTD/svg11.dtd"><svg t="1648116573447" class="icon" viewBox="0 0 1024 1024" version="1.1" xmlns="http://www.w3.org/2000/svg" p-id="985" xmlns:xlink="http://www.w3.org/1999/xlink" width="200" height="200"><defs><style type="text/css">@font-face { font-family: feedback-iconfont; src: url("//at.alicdn.com/t/font_1031158_u69w8yhxdu.woff2?t=1630033759944") format("woff2"), url("//at.alicdn.com/t/font_1031158_u69w8yhxdu.woff?t=1630033759944") format("woff"), url("//at.alicdn.com/t/font_1031158_u69w8yhxdu.ttf?t=1630033759944") format("truetype"); }
</style></defs><path d="M512 0h-0.7C298.7 0.4 126.2 174.8 128 387.4c1 112.1 50 212.8 127.5 282.4 51 45.8 80.5 110.8 80.5 179.3v57c0 65.1 52.8 117.9 117.9 117.9h116.2c65.1 0 117.9-52.8 117.9-117.9v-57c0-68.6 29.6-133.6 80.6-179.5C846.8 599.3 896 497.4 896 384 896 171.9 724.1 0 512 0z m64 912H448c-4.4 0-8.4-1.8-11.3-4.7-2.9-2.9-4.7-6.9-4.7-11.3 0-8.8 7.2-16 16-16h128c4.4 0 8.4 1.8 11.3 4.7 2.9 2.9 4.7 6.9 4.7 11.3 0 8.8-7.2 16-16 16z m0-64H448c-4.4 0-8.4-1.8-11.3-4.7-2.9-2.9-4.7-6.9-4.7-11.3 0-8.8 7.2-16 16-16h128c4.4 0 8.4 1.8 11.3 4.7 2.9 2.9 4.7 6.9 4.7 11.3 0 8.8-7.2 16-16 16z m16-64H432c-4.4 0-8.4-1.8-11.3-4.7-2.9-2.9-4.7-6.9-4.7-11.3 0-8.8 7.2-16 16-16h160c4.4 0 8.4 1.8 11.3 4.7 2.9 2.9 4.7 6.9 4.7 11.3 0 8.8-7.2 16-16 16z m-55.2-160l19.4-173.3H480L647.3 208l-19.4 173.3H704L536.8 624z" p-id="986"></path></svg>