<?xml version="1.0" standalone="no"?><!DOCTYPE svg PUBLIC "-//W3C//DTD SVG 1.1//EN" "http://www.w3.org/Graphics/SVG/1.1/DTD/svg11.dtd"><svg t="1646016169901" class="icon" viewBox="0 0 1024 1024" version="1.1" xmlns="http://www.w3.org/2000/svg" fill="#468EF3" p-id="8195" xmlns:xlink="http://www.w3.org/1999/xlink" width="200" height="200"><defs><style type="text/css"></style></defs><path d="M517.333333 280.8h-6.506666v45.92H517.333333a27.146667 27.146667 0 0 0 11.573334-1.813333 12.266667 12.266667 0 0 0 5.333333-6.293334 40.48 40.48 0 0 0 1.92-14.613333 28.586667 28.586667 0 0 0-4.32-18.293333 18.613333 18.613333 0 0 0-14.506667-4.906667zM431.04 278.72h-6.08a5.333333 5.333333 0 0 0-5.333333 5.333333v6.453334a5.333333 5.333333 0 0 0 5.333333 5.333333h5.653333a42.666667 42.666667 0 0 0 6.72-1.173333 6.986667 6.986667 0 0 0 4.213334-2.613334 7.946667 7.946667 0 0 0 1.6-4.906666 7.733333 7.733333 0 0 0-2.56-6.24 15.68 15.68 0 0 0-9.546667-2.186667z" fill="#468EF3" p-id="8196"></path><path d="M625.226667 386.88V220.64a5.333333 5.333333 0 0 0-5.333334-5.333333h-506.133333a5.333333 5.333333 0 0 0-5.333333 5.333333v166.24a5.333333 5.333333 0 0 0 5.333333 5.333333h506.133333a5.333333 5.333333 0 0 0 5.333334-5.333333zM287.626667 268.266667l-16 73.333333a5.333333 5.333333 0 0 1-5.333334 4.16h-17.173333a5.333333 5.333333 0 0 1-5.333333-3.893333l-12.16-43.52a1.6 1.6 0 0 0-3.04 0l-11.84 43.52a5.333333 5.333333 0 0 1-5.333334 3.893333h-16.906666a5.333333 5.333333 0 0 1-5.333334-4.16L172.96 268.266667a5.333333 5.333333 0 0 1 5.333333-6.506667H192a5.333333 5.333333 0 0 1 5.333333 4.373333l6.773334 36a1.6 1.6 0 0 0 3.093333 0l10.08-36.533333a5.333333 5.333333 0 0 1 5.333333-3.946667h16.48a5.333333 5.333333 0 0 1 5.333334 3.946667l10.133333 36.48a1.6 1.6 0 0 0 3.093333 0l6.773334-35.946667a5.333333 5.333333 0 0 1 5.333333-4.373333H282.666667a5.333333 5.333333 0 0 1 4.96 6.506667z m86.666666 59.04a35.413333 35.413333 0 0 1-14.293333 14.666666 47.573333 47.573333 0 0 1-23.36 5.333334 53.333333 53.333333 0 0 1-23.52-4.533334 35.306667 35.306667 0 0 1-15.093333-14.293333A48 48 0 0 1 292.213333 304a45.706667 45.706667 0 0 1 75.733334-32 42.666667 42.666667 0 0 1 11.306666 31.52 51.733333 51.733333 0 0 1-4.96 23.786667z m93.173334 18.453333h-17.386667a5.333333 5.333333 0 0 1-4.693333-2.773333L433.013333 320a19.146667 19.146667 0 0 0-4.693333-6.453333 10.666667 10.666667 0 0 0-6.346667-1.973334h-2.293333v28.746667a5.333333 5.333333 0 0 1-5.333333 5.333333H398.933333a5.333333 5.333333 0 0 1-5.333333-5.333333V267.093333a5.333333 5.333333 0 0 1 5.333333-5.333333h37.92a62.613333 62.613333 0 0 1 18.4 2.08 19.786667 19.786667 0 0 1 10.24 7.68 22.88 22.88 0 0 1 3.84 13.6 23.626667 23.626667 0 0 1-2.986666 12.053333 22.88 22.88 0 0 1-8.213334 8.213334 30.346667 30.346667 0 0 1-9.066666 3.306666 27.84 27.84 0 0 1 6.72 3.093334 26.933333 26.933333 0 0 1 4.16 4.426666 30.4 30.4 0 0 1 3.626666 5.333334l8.586667 16.586666a5.333333 5.333333 0 0 1-4.693333 7.626667z m91.626666-21.333333a35.146667 35.146667 0 0 1-8.533333 12.426666A27.093333 27.093333 0 0 1 538.666667 343.466667a59.36 59.36 0 0 1-15.466667 2.293333h-33.013333a5.333333 5.333333 0 0 1-5.333334-5.333333V267.093333a5.333333 5.333333 0 0 1 5.333334-5.333333h33.226666a46.666667 46.666667 0 0 1 18.4 3.093333 30.186667 30.186667 0 0 1 11.626667 8.906667 36.053333 36.053333 0 0 1 6.56 13.44 62.08 62.08 0 0 1 2.08 16 56.96 56.96 0 0 1-2.986667 21.173333z" fill="#468EF3" p-id="8197"></path><path d="M335.573333 280a16 16 0 0 0-12.64 5.333333 28.533333 28.533333 0 0 0-4.746666 18.666667 28.266667 28.266667 0 0 0 4.746666 18.293333 17.92 17.92 0 0 0 25.813334 0 31.146667 31.146667 0 0 0 4.586666-19.52 25.813333 25.813333 0 0 0-4.8-17.333333 16.266667 16.266667 0 0 0-12.96-5.44z" fill="#468EF3" p-id="8198"></path><path d="M912 106.666667H201.173333a5.333333 5.333333 0 0 0-5.333333 5.333333v64a5.333333 5.333333 0 0 0 5.333333 5.333333H837.333333a5.333333 5.333333 0 0 1 5.333334 5.333334v510.666666a5.333333 5.333333 0 0 1-1.546667 3.733334l-88.213333 140.053333a5.333333 5.333333 0 0 1-3.733334 1.546667H275.84a5.333333 5.333333 0 0 1-5.333333-5.333334V434.08a5.333333 5.333333 0 0 0-5.333334-5.333333h-64a5.333333 5.333333 0 0 0-5.333333 5.333333V912a5.333333 5.333333 0 0 0 5.333333 5.333333h578.88a5.333333 5.333333 0 0 0 3.786667-1.546666l131.946667-183.786667a5.333333 5.333333 0 0 0 1.546666-3.786667V112a5.333333 5.333333 0 0 0-5.333333-5.333333z" fill="#468EF3" p-id="8199"></path><path d="M575.52 512h-36.16a5.333333 5.333333 0 0 0-5.333333 3.946667c-16 64-43.413333 161.28-52.053334 202.986666l-42.666666-202.666666a5.333333 5.333333 0 0 0-5.333334-4.213334h-40a5.333333 5.333333 0 0 0-5.333333 6.613334l64 247.573333a5.333333 5.333333 0 0 0 5.333333 4h42.346667a5.333333 5.333333 0 0 0 5.333333-3.893333c14.933333-55.093333 40.586667-148.373333 49.226667-190.773334h0.373333c7.946667 38.826667 33.28 132.373333 48 190.666667a5.333333 5.333333 0 0 0 5.333334 4h42.666666a5.333333 5.333333 0 0 0 5.333334-3.893333l68.853333-247.573334a5.333333 5.333333 0 0 0-5.333333-6.72h-36.053334a5.333333 5.333333 0 0 0-5.333333 4c-11.52 46.72-39.146667 149.6-47.36 200.693334h-0.373333c-7.36-40.586667-35.36-147.04-49.76-200.8a5.333333 5.333333 0 0 0-5.706667-3.946667z" fill="#468EF3" p-id="8200"></path></svg>